<?xml version="1.0" encoding="utf-8"?>
<svg xmlns="http://www.w3.org/2000/svg"
	xmlns:xlink="http://www.w3.org/1999/xlink"
	width="12px" height="13px" viewBox="0 0 12 13">
<filter filterUnits="objectBoundingBox" x="0.00" y="0.00" width="100.00" height="100.00" id="filter0">
<feFlood flood-color="rgb(241,89,41)" result="coFloodOut1"/>
<feComposite in="coFloodOut1" in2="SourceAlpha" operator="in" result="coOverlay1"/>
<feBlend in="coOverlay1" in2="SourceGraphic" mode="normal" result="colorOverlay1"/>
</filter>
<path fillRule="evenodd" d="M 10.91-0C 10.91-0 1.09-0 1.09-0 0.49-0-0 0.48-0 1.07-0 1.07-0 11.92-0 11.92-0 12.52 0.49 13 1.09 13 1.09 13 10.91 13 10.91 13 11.51 13 12 12.52 12 11.92 12 11.92 12 1.07 12 1.07 12 0.48 11.51-0 10.91-0ZM 3.54 11.19C 3.54 11.35 3.41 11.48 3.24 11.48 3.24 11.48 1.71 11.48 1.71 11.48 1.55 11.48 1.41 11.35 1.41 11.19 1.41 11.19 1.41 9.69 1.41 9.69 1.41 9.52 1.55 9.39 1.71 9.39 1.71 9.39 3.24 9.39 3.24 9.39 3.41 9.39 3.54 9.52 3.54 9.69 3.54 9.69 3.54 11.19 3.54 11.19ZM 3.54 7.87C 3.54 8.03 3.41 8.17 3.24 8.17 3.24 8.17 1.71 8.17 1.71 8.17 1.55 8.17 1.41 8.03 1.41 7.87 1.41 7.87 1.41 6.37 1.41 6.37 1.41 6.21 1.55 6.08 1.71 6.08 1.71 6.08 3.24 6.08 3.24 6.08 3.41 6.08 3.54 6.21 3.54 6.37 3.54 6.37 3.54 7.87 3.54 7.87ZM 7.06 11.19C 7.06 11.35 6.93 11.48 6.76 11.48 6.76 11.48 5.24 11.48 5.24 11.48 5.07 11.48 4.94 11.35 4.94 11.19 4.94 11.19 4.94 9.69 4.94 9.69 4.94 9.52 5.07 9.39 5.24 9.39 5.24 9.39 6.76 9.39 6.76 9.39 6.93 9.39 7.06 9.52 7.06 9.69 7.06 9.69 7.06 11.19 7.06 11.19ZM 7.06 7.87C 7.06 8.03 6.93 8.17 6.76 8.17 6.76 8.17 5.24 8.17 5.24 8.17 5.07 8.17 4.94 8.03 4.94 7.87 4.94 7.87 4.94 6.37 4.94 6.37 4.94 6.21 5.07 6.08 5.24 6.08 5.24 6.08 6.76 6.08 6.76 6.08 6.93 6.08 7.06 6.21 7.06 6.37 7.06 6.37 7.06 7.87 7.06 7.87ZM 10.59 11.19C 10.59 11.35 10.45 11.48 10.29 11.48 10.29 11.48 8.76 11.48 8.76 11.48 8.59 11.48 8.46 11.35 8.46 11.19 8.46 11.19 8.46 9.69 8.46 9.69 8.46 9.52 8.59 9.39 8.76 9.39 8.76 9.39 10.29 9.39 10.29 9.39 10.45 9.39 10.59 9.52 10.59 9.69 10.59 9.69 10.59 11.19 10.59 11.19ZM 10.59 7.87C 10.59 8.03 10.45 8.17 10.29 8.17 10.29 8.17 8.76 8.17 8.76 8.17 8.59 8.17 8.46 8.03 8.46 7.87 8.46 7.87 8.46 6.37 8.46 6.37 8.46 6.21 8.59 6.08 8.76 6.08 8.76 6.08 10.29 6.08 10.29 6.08 10.45 6.08 10.59 6.21 10.59 6.37 10.59 6.37 10.59 7.87 10.59 7.87ZM 10.59 4.28C 10.59 4.44 10.45 4.58 10.29 4.58 10.29 4.58 1.71 4.58 1.71 4.58 1.55 4.58 1.41 4.44 1.41 4.28 1.41 4.28 1.41 1.59 1.41 1.59 1.41 1.43 1.55 1.3 1.71 1.3 1.71 1.3 10.29 1.3 10.29 1.3 10.45 1.3 10.59 1.43 10.59 1.59 10.59 1.59 10.59 4.28 10.59 4.28Z" fill="rgb(223,27,41)" filter="url(#filter0)"/></svg>