<?xml version="1.0" encoding="utf-8"?>
<svg xmlns="http://www.w3.org/2000/svg"
	xmlns:xlink="http://www.w3.org/1999/xlink"
	width="13px" height="13px" viewBox="0 0 13 13">
<filter filterUnits="objectBoundingBox" x="0.00" y="0.00" width="100.00" height="100.00" id="filter0">
<feFlood flood-color="rgb(255,255,255)" result="coFloodOut1"/>
<feComposite in="coFloodOut1" in2="SourceAlpha" operator="in" result="coOverlay1"/>
<feBlend in="coOverlay1" in2="SourceGraphic" mode="normal" result="colorOverlay1"/>
</filter>
<path fillRule="evenodd" d="M 12.99 10.26C 13.02 10.47 12.96 10.65 12.8 10.81 12.8 10.81 10.97 12.63 10.97 12.63 10.89 12.72 10.78 12.8 10.65 12.86 10.51 12.92 10.38 12.97 10.25 12.99 10.25 12.99 10.22 12.99 10.17 12.99 10.13 13 10.07 13 9.99 13 9.82 13 9.54 12.97 9.15 12.91 8.76 12.85 8.28 12.7 7.72 12.47 7.15 12.23 6.51 11.88 5.8 11.41 5.08 10.95 4.32 10.3 3.51 9.49 2.87 8.85 2.34 8.25 1.92 7.67 1.49 7.09 1.15 6.56 0.9 6.06 0.64 5.57 0.45 5.13 0.32 4.73 0.19 4.33 0.1 3.99 0.06 3.7 0.01 3.41-0.01 3.18 0 3.01 0.01 2.85 0.02 2.76 0.02 2.74 0.03 2.61 0.08 2.48 0.14 2.35 0.2 2.21 0.28 2.11 0.37 2.02 0.37 2.02 2.2 0.19 2.2 0.19 2.33 0.06 2.48-0 2.64-0 2.76-0 2.87 0.03 2.96 0.1 3.05 0.17 3.13 0.26 3.19 0.36 3.19 0.36 4.67 3.15 4.67 3.15 4.75 3.3 4.77 3.46 4.74 3.64 4.7 3.81 4.62 3.95 4.5 4.08 4.5 4.08 3.83 4.75 3.83 4.75 3.81 4.77 3.79 4.8 3.78 4.84 3.77 4.88 3.76 4.92 3.76 4.94 3.8 5.13 3.88 5.36 4.01 5.6 4.12 5.82 4.29 6.09 4.52 6.41 4.75 6.73 5.07 7.09 5.49 7.5 5.91 7.93 6.27 8.25 6.59 8.49 6.92 8.72 7.18 8.89 7.4 9.01 7.61 9.12 7.78 9.18 7.89 9.21 7.89 9.21 8.07 9.24 8.07 9.24 8.08 9.24 8.11 9.23 8.16 9.22 8.2 9.21 8.23 9.19 8.25 9.17 8.25 9.17 9.03 8.37 9.03 8.37 9.2 8.22 9.39 8.15 9.61 8.15 9.76 8.15 9.89 8.18 9.98 8.23 9.98 8.23 9.99 8.23 9.99 8.23 9.99 8.23 12.65 9.8 12.65 9.8 12.84 9.92 12.96 10.07 12.99 10.26Z" fill="rgb(223,21,35)" filter="url(#filter0)"/></svg>